PathFileType	4	(X/Y/Z)	./resultDataOpenSim/trcMotMarkerGrf/sub06/qtm-03-08.trc
DataRate	CameraRate	NumFrames	NumMarkers	Units	OrigDataRate	OrigDataStartFrame	OrigNumFrames
250.000000	250.000000	14	24	m	250.000000	257	512
Frame#	Time	L.Toe.Tip			R.Toe.Tip			L.Ankle.Lat			R.Ankle.Lat			L.Ankle.Med			R.Ankle.Med			L.Heel			R.Heel			L.Knee.Lat			R.Knee.Lat			L.Knee.Med			R.Knee.Med			L.Thigh.Upper			R.Thigh.Upper			L.ASIS			R.ASIS			V.Sacral			L.Acromium			R.Acromium			C7			L.Elbow			R.Elbow			L.Wrist.Lat			R.Wrist.Lat
		X1	Y1	Z1	X2	Y2	Z2	X3	Y3	Z3	X4	Y4	Z4	X5	Y5	Z5	X6	Y6	Z6	X7	Y7	Z7	X8	Y8	Z8	X9	Y9	Z9	X10	Y10	Z10	X11	Y11	Z11	X12	Y12	Z12	X13	Y13	Z13	X14	Y14	Z14	X15	Y15	Z15	X16	Y16	Z16	X17	Y17	Z17	X18	Y18	Z18	X19	Y19	Z19	X20	Y20	Z20	X21	Y21	Z21	X22	Y22	Z22	X23	Y23	Z23	X24	Y24	Z24

257	1.024	0.071180595	-0.015562487	-0.028149244	0.61535052	0.09328063	0.16547498	-0.048734427	0.034507967	-0.036960581	0.47891005	0.089756809	0.17545125	-0.037600405	0.047268658	0.048970507	0.50221156	0.11732086	0.090173301	-0.12033635	0.015898845	0.016654356	0.43901905	0.056735377	0.10805937	0.074714601	0.38370155	-0.058170792	0.44143924	0.48186614	0.18335083	0.06741603	0.38539672	0.062376334	0.42671208	0.46104204	0.059223623	0.16124222	0.75908579	-0.12726776	0.21510422	0.76687082	0.22090151	0.24760821	0.80235499	-0.093505378	0.28263191	0.81921179	0.15033857	0.083081553	0.88273456	0.057141861	0.22262512	1.2999788	-0.13995181	0.22703843	1.2715596	0.22196001	0.15031537	1.3262059	0.042127398	0.20644388	0.97643359	-0.2282576	0.073599433	0.99739722	0.27736306	0.44137053	0.89491996	-0.17319747	0.13410003	0.77056515	0.335578
258	1.028	0.071137225	-0.015615686	-0.02823279	0.63312161	0.094614987	0.16489886	-0.048344483	0.035000761	-0.037345286	0.49651449	0.088719756	0.17537167	-0.037247296	0.047690712	0.048614592	0.51914984	0.116865	0.090141649	-0.1201475	0.016852516	0.016152825	0.45732542	0.055131075	0.10777958	0.077753264	0.38329442	-0.058448217	0.44775495	0.47922008	0.18337334	0.070454961	0.38498295	0.06221326	0.43355953	0.45819553	0.059187252	0.16629311	0.75785572	-0.12701698	0.22349311	0.76496304	0.22084383	0.25340845	0.80116701	-0.093484427	0.28989319	0.81767536	0.15007414	0.089639073	0.88110259	0.058040282	0.22863928	1.2985261	-0.13967276	0.23315307	1.2700507	0.22230578	0.15636545	1.324801	0.042508386	0.21482842	0.97467712	-0.22777611	0.079860302	0.9959671	0.27770263	0.44966932	0.89483251	-0.17209992	0.13933988	0.76904266	0.33622644
259	1.032	0.071078441	-0.015677853	-0.028325973	0.65035637	0.096152734	0.1644863	-0.047939185	0.035491559	-0.037761781	0.51373574	0.087830172	0.17526505	-0.036885841	0.048126366	0.048249702	0.53570237	0.11667883	0.090181692	-0.12001007	0.017885933	0.015549376	0.47518927	0.053705244	0.10759502	0.0809502	0.38283576	-0.058699846	0.45403906	0.47645522	0.18337813	0.07367279	0.38446373	0.062061743	0.44037537	0.45523233	0.059081647	0.17132999	0.75660043	-0.12676722	0.23201361	0.76307714	0.2210476	0.25881962	0.79985027	-0.093502913	0.29708891	0.8160702	0.14975548	0.09620664	0.87948211	0.058969131	0.23464424	1.2970419	-0.1393774	0.23925795	1.2685137	0.222667	0.16242276	1.3233625	0.042910998	0.22334025	0.97282363	-0.22712296	0.086171685	0.99447816	0.27807475	0.45792574	0.89462756	-0.17101769	0.14479683	0.7675106	0.33691867
260	1.036	0.071010613	-0.015745477	-0.028423399	0.66700877	0.097860975	0.16423217	-0.047487743	0.035968108	-0.038202676	0.53053419	0.087020076	0.17511919	-0.036522705	0.048565559	0.047868689	0.55180375	0.11673497	0.090293234	-0.11987972	0.01897716	0.014894891	0.49254375	0.052446965	0.10751253	0.084333025	0.38231988	-0.058937696	0.46030711	0.47361106	0.1833454	0.077087938	0.38384512	0.061912373	0.44716045	0.45218836	0.05889989	0.17636938	0.75533765	-0.12653736	0.24061913	0.76122889	0.2215034	0.2640672	0.7984596	-0.093552307	0.3042423	0.81440777	0.14939952	0.10277181	0.87787555	0.059925776	0.24064545	1.2955312	-0.1390617	0.24536345	1.2669523	0.22304303	0.16849695	1.3218968	0.043330311	0.23195495	0.97089275	-0.22632478	0.09253189	0.99293608	0.27847962	0.46613109	0.89430646	-0.16995265	0.15041739	0.76594973	0.33763654
261	1.04	0.070948935	-0.015810637	-0.028516634	0.68303391	0.09971892	0.16409767	-0.04699338	0.03643664	-0.038651082	0.54680372	0.086295101	0.17494811	-0.036172535	0.049000995	0.047464504	0.56733874	0.11695883	0.090443354	-0.11972109	0.02011972	0.014235535	0.50929841	0.051381098	0.10748631	0.087966146	0.38174962	-0.059188419	0.46658796	0.47073146	0.18326702	0.080696407	0.38313754	0.061755525	0.45391075	0.44909707	0.058634026	0.18142999	0.7540784	-0.12631285	0.24919699	0.75942888	0.22215271	0.26935402	0.79702366	-0.093656623	0.31142344	0.8127155	0.14904254	0.10932859	0.87628402	0.06091145	0.24665088	1.2940021	-0.13871851	0.25148561	1.2653729	0.22344297	0.17458907	1.3204078	0.043764616	0.24064185	0.96890884	-0.22541287	0.09893801	0.9913449	0.27891745	0.47428256	0.89387286	-0.16890108	0.15610697	0.76432197	0.33834938
262	1.044	0.070904251	-0.015867338	-0.028599777	0.69836708	0.10172615	0.16401272	-0.046473123	0.036917164	-0.0390916	0.5623902	0.085734362	0.17479853	-0.035823359	0.049443861	0.047048981	0.58218321	0.11725357	0.09059069	-0.11951245	0.021318686	0.013604635	0.52536417	0.050503737	0.10748218	0.091888337	0.38114178	-0.059470081	0.47292555	0.46786471	0.1831473	0.084484261	0.38235742	0.061585126	0.46062001	0.44598888	0.058277311	0.18653068	0.75281768	-0.12605993	0.25760942	0.75768549	0.22291843	0.27482511	0.79555224	-0.09385107	0.31866814	0.81100686	0.14870336	0.11588739	0.87470784	0.06192875	0.25266574	1.2924612	-0.13834429	0.25764011	1.2637787	0.22387635	0.18069773	1.3188959	0.044222311	0.24937099	0.96689585	-0.22441741	0.10538839	0.98970643	0.27938691	0.48238319	0.89332975	-0.16785385	0.1618717	0.76263257	0.33906303
263	1.048	0.070875911	-0.015914146	-0.028673554	0.71294251	0.10387604	0.16389951	-0.045933921	0.037429922	-0.039518662	0.57718873	0.085390276	0.17471202	-0.035429027	0.049923664	0.046651365	0.59625518	0.11753507	0.090718932	-0.11924596	0.022581413	0.013018673	0.54067576	0.049745959	0.10751373	0.096035416	0.38051368	-0.05976267	0.47936412	0.46506026	0.18298631	0.088443074	0.38152681	0.06140126	0.46727933	0.44289057	0.057832344	0.19168855	0.75154796	-0.12575531	0.26571348	0.75600686	0.22372019	0.28052624	0.79406865	-0.094106648	0.32596769	0.80928356	0.1483772	0.12249526	0.87315071	0.062961961	0.2586899	1.2909104	-0.13794058	0.26382918	1.2621702	0.22434282	0.18682659	1.3173644	0.044717362	0.25811446	0.96487617	-0.2233665	0.11188443	0.98802036	0.27988643	0.49043636	0.89267909	-0.16680461	0.16782321	0.76093067	0.33981785
264	1.052	0.070858499	-0.015950075	-0.028743856	0.72671761	0.10612347	0.16371024	-0.045374531	0.037992142	-0.03993184	0.59118781	0.085224076	0.17468762	-0.034947554	0.050466789	0.046292236	0.60953033	0.11775835	0.090810522	-0.11892239	0.023915768	0.012478054	0.55519037	0.049011468	0.10760656	0.10025491	0.37987455	-0.06001105	0.48593801	0.46237509	0.18276332	0.092573497	0.38066862	0.061209598	0.47388144	0.43982557	0.057314746	0.19692001	0.75027295	-0.12539024	0.27335768	0.75440154	0.2244741	0.28646629	0.79262593	-0.094320984	0.33330136	0.80755527	0.14804997	0.12922901	0.87162575	0.063971108	0.26472071	1.2893497	-0.13751118	0.27004052	1.2605488	0.22483382	0.19297855	1.3158219	0.045259631	0.26684562	0.96287129	-0.2222872	0.11842777	0.98628668	0.2804155	0.49844301	0.89192473	-0.16575943	0.17403602	0.75924855	0.34063512
265	1.056	0.07084809	-0.015972838	-0.028817307	0.73967578	0.10837739	0.16343146	-0.044788267	0.038619446	-0.0403269	0.60441684	0.085149761	0.17469097	-0.034369347	0.051079813	0.04596686	0.62202321	0.11791281	0.090815315	-0.11854264	0.025329554	0.011973935	0.56888298	0.04822609	0.10776178	0.10443794	0.37922961	-0.060178829	0.49267914	0.45988247	0.18244017	0.096873189	0.37980219	0.061022031	0.48042213	0.43681825	0.056748063	0.20224276	0.74900406	-0.12496345	0.2803753	0.75287901	0.22509087	0.29268348	0.79127706	-0.094392709	0.3406554	0.80584011	0.14770828	0.13611889	0.87015431	0.064938851	0.27075548	1.2877848	-0.13705847	0.27626241	1.2589178	0.2253418	0.19914868	1.3142784	0.045852872	0.27553791	0.96090267	-0.22120691	0.12502047	0.98450991	0.28097256	0.50640212	0.89107285	-0.16473504	0.18046047	0.75756989	0.34148901
266	1.06	0.070842186	-0.015983834	-0.028894285	0.75181815	0.11051663	0.16306304	-0.044161567	0.039324704	-0.04069421	0.61689117	0.085091434	0.17468	-0.033705967	0.051755313	0.045652189	0.63376286	0.11797969	0.090685897	-0.1181045	0.026826691	0.011496057	0.58174423	0.047353654	0.10795251	0.10859943	0.37858547	-0.06028815	0.49962059	0.45765883	0.18198115	0.10132782	0.37894202	0.060855302	0.48690194	0.43390209	0.056152663	0.20767507	0.74775137	-0.12448193	0.28660845	0.75145053	0.22549263	0.29921189	0.79003713	-0.094297576	0.34802541	0.80415338	0.14734449	0.14309759	0.86875374	0.065907648	0.27679024	1.2862246	-0.13658236	0.28249884	1.2572832	0.22586741	0.20532984	1.3127395	0.046497337	0.28416394	0.9589926	-0.22015493	0.13166838	0.9826991	0.28155498	0.51431022	0.89012869	-0.16374599	0.18700147	0.75586491	0.3423414
267	1.064	0.070838982	-0.015991356	-0.028965755	0.76315859	0.11241415	0.1626102	-0.043484208	0.040116935	-0.041026978	0.62860064	0.084990725	0.174618	-0.0329688	0.052487713	0.045325278	0.64477523	0.1179056	0.090425643	-0.117606	0.028408345	0.01104046	0.59377005	0.046388113	0.10813401	0.11281145	0.37794928	-0.060389485	0.50678542	0.45575012	0.18137723	0.10592226	0.37809706	0.060722375	0.49333523	0.43112483	0.055533599	0.21323116	0.74651819	-0.12396116	0.29199644	0.75012966	0.22566313	0.30600279	0.78887824	-0.094099136	0.35541448	0.80250551	0.14696065	0.1500771	0.86742784	0.06693062	0.28282087	1.2846763	-0.13608231	0.28877019	1.2556543	0.22641984	0.21152431	1.3112059	0.047189767	0.29269493	0.95716458	-0.2191633	0.13837771	0.98086521	0.2821608	0.52216187	0.88909475	-0.16279583	0.1936241	0.75412853	0.34318238
268	1.068	0.07083796	-0.016004006	-0.029022034	0.7737193	0.11395601	0.16208523	-0.042760696	0.041001363	-0.041326075	0.63952026	0.084795136	0.17447803	-0.03216215	0.053286173	0.044983939	0.65507448	0.1176326	0.09007297	-0.1170462	0.03008561	0.010616038	0.60495489	0.045337083	0.10825622	0.1171185	0.37732406	-0.060506342	0.51417469	0.45414239	0.18066235	0.11065922	0.37727114	0.06062416	0.49975699	0.42854293	0.054880492	0.21891522	0.74530139	-0.12341858	0.29670718	0.74892916	0.22570828	0.3128969	0.78774608	-0.093915031	0.36283007	0.80090298	0.14656556	0.15704523	0.86616774	0.068010543	0.28884929	1.2831456	-0.13555737	0.29509773	1.2540422	0.22700902	0.21774828	1.3096797	0.047920579	0.30110181	0.95544231	-0.21826388	0.14514921	0.97902055	0.2827881	0.52995246	0.8879723	-0.16187962	0.20035261	0.75237562	0.34402568
269	1.072	0.070840866	-0.016022217	-0.029062773	0.78352027	0.11505328	0.16150083	-0.042000044	0.041977437	-0.041598741	0.64963058	0.084455508	0.17424093	-0.0312871	0.054175186	0.044651502	0.66466755	0.11713479	0.089654293	-0.1164186	0.031887216	0.01023914	0.61529842	0.044202162	0.10827474	0.12153142	0.37670814	-0.06062382	0.5217619	0.45276334	0.17990449	0.11555729	0.37646578	0.060549728	0.50622098	0.42621574	0.054183989	0.22472041	0.74409595	-0.1228701	0.30118106	0.74785123	0.22584354	0.31965917	0.78657653	-0.093883774	0.37027973	0.79934799	0.14616725	0.16405169	0.86495728	0.069113214	0.29488608	1.2816394	-0.13500455	0.30148796	1.2524549	0.22763759	0.22402566	1.3081712	0.048669932	0.30935961	0.95384525	-0.21747767	0.15198003	0.97717663	0.28343484	0.53767946	0.8867636	-0.16099098	0.20721906	0.75062282	0.34488416
270	1.076	0.070851589	-0.016039229	-0.029094262	0.79257434	0.11564748	0.16086428	-0.041190863	0.043037815	-0.041863858	0.65893314	0.083928541	0.17389035	-0.030342947	0.0551741	0.044349589	0.67356456	0.11641339	0.089164625	-0.11570911	0.033837311	0.0099071923	0.62480803	0.042968425	0.10815769	0.12605618	0.376098	-0.060724652	0.5294921	0.45152398	0.17916767	0.12062068	0.3756877	0.060484535	0.51279351	0.42420774	0.053451577	0.23063834	0.74289825	-0.12232888	0.30597439	0.74687355	0.22625608	0.32605031	0.78531526	-0.094127983	0.3777708	0.79784257	0.14577291	0.17114416	0.86378109	0.070203101	0.30094442	1.2801656	-0.13441912	0.30793629	1.2508977	0.22830303	0.23037654	1.3066973	0.049408559	0.31745532	0.95238116	-0.21679769	0.15886995	0.97533997	0.28409933	0.54534161	0.88547287	-0.16012616	0.21423818	0.74888353	0.34576023
